<svg width="19" height="20" viewBox="0 0 19 20" fill="none" xmlns="http://www.w3.org/2000/svg">
<path d="M18.9137 8.61407C18.8576 8.23208 18.513 7.94125 18.0964 7.94125C17.641 7.94125 17.2719 8.28851 17.2719 8.717C17.2719 8.75173 17.2746 8.78646 17.2792 8.81994L17.2785 8.81622C17.3253 9.12937 17.3517 9.49151 17.3517 9.85924C17.3517 14.2273 13.5904 17.7687 8.94936 17.773H8.9487C8.94277 17.773 8.93552 17.773 8.92893 17.773C6.44362 17.773 4.21336 16.748 2.6883 15.1233L2.68039 15.1146H5.7002C6.15495 15.1146 6.52402 14.7674 6.52402 14.3395C6.52402 13.9116 6.15495 13.5644 5.7002 13.5644H1.03999C1.01693 13.5644 0.997815 13.5749 0.975407 13.5768C0.922682 13.5823 0.87523 13.5916 0.829096 13.6053L0.835027 13.604C0.76978 13.6183 0.713101 13.6382 0.659718 13.663L0.664331 13.6611C0.648514 13.6685 0.630719 13.6685 0.614902 13.6778C0.591176 13.6964 0.569427 13.715 0.548996 13.7343C0.500884 13.7678 0.458705 13.8043 0.420479 13.8446L0.41982 13.8453C0.317666 13.9556 0.249783 14.0964 0.235284 14.2521V14.2545C0.228693 14.2775 0.222103 14.3066 0.217489 14.3358L0.21683 14.3395V18.7249C0.21683 19.1527 0.585903 19.5 1.04065 19.5C1.4954 19.5 1.86448 19.1527 1.86448 18.7249V16.5725C3.66766 18.2722 6.16022 19.3233 8.91443 19.3233C8.92695 19.3233 8.93881 19.3233 8.95133 19.3233H8.94936C14.4973 19.3177 18.9934 15.0873 19 9.86792V9.8673C19 9.42516 18.9684 8.99047 18.9077 8.56384L18.9137 8.61407ZM0.904887 12.0594C0.943772 12.0594 0.981997 12.0569 1.0189 12.0519L1.01495 12.0525C1.42093 12.0005 1.73003 11.6768 1.73003 11.2849C1.73003 11.2489 1.72739 11.2129 1.72212 11.1782L1.72278 11.1819C1.67533 10.8675 1.64896 10.5041 1.64896 10.1346C1.64896 5.76717 5.41087 2.22699 10.052 2.22513C10.0579 2.22513 10.0645 2.22513 10.0711 2.22513C12.5564 2.22513 14.7873 3.25016 16.3117 4.87546L16.3196 4.88414H13.3005C12.8457 4.88414 12.4766 5.2314 12.4766 5.65927C12.4766 6.08714 12.8457 6.4344 13.3005 6.4344H17.9613C17.9811 6.4344 17.9982 6.4251 18.0173 6.42386C18.1353 6.40898 18.2427 6.37983 18.3416 6.33704L18.3344 6.33952C18.3508 6.33146 18.3693 6.33146 18.3858 6.32216C18.4101 6.30356 18.4319 6.28495 18.4523 6.26511C18.5004 6.23163 18.5426 6.19566 18.5802 6.15535L18.5808 6.15473C18.6421 6.0828 18.6935 5.99909 18.7298 5.90917L18.7318 5.90297C18.7476 5.8577 18.7594 5.80499 18.7647 5.75042V5.74732C18.772 5.72376 18.7786 5.69399 18.7832 5.66361L18.7838 5.65989V1.27513C18.7838 0.847259 18.4148 0.5 17.96 0.5C17.5053 0.5 17.1362 0.847259 17.1362 1.27513V3.42813C15.333 1.72781 12.8391 0.67549 10.0849 0.67549C10.0731 0.67549 10.0612 0.67549 10.0487 0.67549H10.0506C4.49939 0.67859 0 4.9139 0 10.1377C0 10.5786 0.0322939 11.0126 0.0942454 11.4374L0.0883139 11.3884C0.144334 11.7692 0.487703 12.06 0.903569 12.0606L0.904887 12.0594Z" fill="#E25E3E"/>
</svg>
