<svg width="28" height="24" viewBox="0 0 28 24" fill="none" xmlns="http://www.w3.org/2000/svg">
<path d="M26.9255 13.5251V18.1001C26.9255 20.0819 22.1461 22.6752 16.2503 22.6752C10.3546 22.6752 5.5752 20.0819 5.5752 18.1001C5.5752 17.4481 5.5752 16.1773 5.5752 14.2876" stroke="#E25E3E" stroke-width="1.5" stroke-linecap="round" stroke-linejoin="round"/>
<path d="M6.02344 14.6826C7.34228 16.4337 11.422 18.0756 16.2504 18.0756C22.1462 18.0756 26.9256 15.6276 26.9256 13.522C26.9256 12.3405 25.4207 11.0455 23.0581 10.1364" stroke="#E25E3E" stroke-width="1.5" stroke-linecap="round" stroke-linejoin="round"/>
<path d="M22.3503 5.89978V10.4748C22.3503 12.4566 17.5709 15.0499 11.6752 15.0499C5.77943 15.0499 1 12.4566 1 10.4748C1 9.49688 1 6.87775 1 5.89978" stroke="#E25E3E" stroke-width="1.5" stroke-linecap="round" stroke-linejoin="round"/>
<path fill-rule="evenodd" clip-rule="evenodd" d="M11.6752 10.4502C17.5709 10.4502 22.3503 8.00214 22.3503 5.89653C22.3503 3.79091 17.5709 1.325 11.6752 1.325C5.77943 1.325 1 3.79091 1 5.89653C1 8.00214 5.77943 10.4502 11.6752 10.4502Z" stroke="#E25E3E" stroke-width="1.5" stroke-linecap="round" stroke-linejoin="round"/>
</svg>
