<svg width="168" height="24" viewBox="0 0 168 24" fill="none" xmlns="http://www.w3.org/2000/svg">
<circle cx="41" cy="12" r="12" fill="#D7E0C3"/>
<circle cx="69" cy="12" r="12" fill="#ABD357"/>
<circle cx="97" cy="12" r="12" fill="#6F961D"/>
<circle cx="125" cy="12" r="12" fill="#3C5800"/>
<path d="M0.799006 16V8.72727H1.89631V15.0554H5.19176V16H0.799006ZM8.46916 16.1101C7.93176 16.1101 7.46893 15.9953 7.08067 15.7656C6.69478 15.5336 6.39648 15.2081 6.18578 14.7891C5.97745 14.3677 5.87328 13.8741 5.87328 13.3082C5.87328 12.7495 5.97745 12.2571 6.18578 11.831C6.39648 11.4048 6.69004 11.0722 7.06646 10.8331C7.44525 10.594 7.88796 10.4744 8.39459 10.4744C8.70235 10.4744 9.00065 10.5253 9.28947 10.6271C9.5783 10.7289 9.83753 10.8887 10.0672 11.1065C10.2968 11.3243 10.4779 11.6072 10.6105 11.9553C10.7431 12.3009 10.8094 12.7211 10.8094 13.2159V13.5923H6.47342V12.7969H9.76888C9.76888 12.5175 9.71206 12.2701 9.59842 12.0547C9.48479 11.8369 9.32499 11.6652 9.11902 11.5398C8.91542 11.4143 8.67631 11.3516 8.40169 11.3516C8.1034 11.3516 7.84298 11.425 7.62044 11.5717C7.40027 11.7161 7.22982 11.9055 7.10908 12.1399C6.99071 12.3719 6.93152 12.6241 6.93152 12.8963V13.5178C6.93152 13.8823 6.99544 14.1925 7.12328 14.4482C7.25349 14.7038 7.4346 14.8991 7.66661 15.0341C7.89861 15.1667 8.16968 15.233 8.47982 15.233C8.68105 15.233 8.86452 15.2045 9.03024 15.1477C9.19596 15.0885 9.33919 15.0009 9.45993 14.8849C9.58067 14.7689 9.673 14.6257 9.73692 14.4553L10.7419 14.6364C10.6614 14.9323 10.517 15.1915 10.3087 15.4141C10.1027 15.6342 9.84345 15.8059 9.53095 15.929C9.22082 16.0497 8.86689 16.1101 8.46916 16.1101ZM15.8348 11.8771L14.8725 12.0476C14.8322 11.9245 14.7683 11.8073 14.6807 11.696C14.5955 11.5848 14.4795 11.4936 14.3327 11.4226C14.1859 11.3516 14.0024 11.3161 13.7823 11.3161C13.4816 11.3161 13.2306 11.3835 13.0294 11.5185C12.8282 11.651 12.7276 11.8227 12.7276 12.0334C12.7276 12.2157 12.795 12.3625 12.93 12.4737C13.0649 12.585 13.2827 12.6761 13.5834 12.7472L14.4499 12.946C14.9518 13.062 15.3258 13.2408 15.572 13.4822C15.8182 13.7237 15.9413 14.0374 15.9413 14.4233C15.9413 14.75 15.8466 15.0412 15.6573 15.2969C15.4702 15.5502 15.2086 15.7491 14.8725 15.8935C14.5386 16.0379 14.1516 16.1101 13.7112 16.1101C13.1004 16.1101 12.6021 15.9799 12.2162 15.7195C11.8303 15.4567 11.5936 15.0838 11.506 14.6009L12.5323 14.4446C12.5962 14.7121 12.7276 14.9145 12.9264 15.0518C13.1253 15.1868 13.3845 15.2543 13.7041 15.2543C14.0521 15.2543 14.3303 15.1821 14.5386 15.0376C14.747 14.8909 14.8511 14.7121 14.8511 14.5014C14.8511 14.331 14.7872 14.1877 14.6594 14.0717C14.5339 13.9557 14.341 13.8681 14.0805 13.8089L13.1573 13.6065C12.6483 13.4905 12.2718 13.3059 12.028 13.0526C11.7865 12.7992 11.6658 12.4785 11.6658 12.0902C11.6658 11.7682 11.7557 11.4865 11.9357 11.245C12.1156 11.0036 12.3642 10.8153 12.6814 10.6804C12.9986 10.5431 13.362 10.4744 13.7716 10.4744C14.3611 10.4744 14.8251 10.6023 15.1636 10.858C15.5022 11.1113 15.7259 11.451 15.8348 11.8771ZM20.9561 11.8771L19.9938 12.0476C19.9535 11.9245 19.8896 11.8073 19.802 11.696C19.7168 11.5848 19.6008 11.4936 19.454 11.4226C19.3072 11.3516 19.1238 11.3161 18.9036 11.3161C18.6029 11.3161 18.352 11.3835 18.1507 11.5185C17.9495 11.651 17.8489 11.8227 17.8489 12.0334C17.8489 12.2157 17.9164 12.3625 18.0513 12.4737C18.1863 12.585 18.4041 12.6761 18.7047 12.7472L19.5712 12.946C20.0731 13.062 20.4471 13.2408 20.6934 13.4822C20.9396 13.7237 21.0627 14.0374 21.0627 14.4233C21.0627 14.75 20.968 15.0412 20.7786 15.2969C20.5916 15.5502 20.33 15.7491 19.9938 15.8935C19.66 16.0379 19.2729 16.1101 18.8326 16.1101C18.2218 16.1101 17.7234 15.9799 17.3375 15.7195C16.9516 15.4567 16.7149 15.0838 16.6273 14.6009L17.6536 14.4446C17.7175 14.7121 17.8489 14.9145 18.0478 15.0518C18.2466 15.1868 18.5059 15.2543 18.8255 15.2543C19.1735 15.2543 19.4516 15.1821 19.66 15.0376C19.8683 14.8909 19.9725 14.7121 19.9725 14.5014C19.9725 14.331 19.9086 14.1877 19.7807 14.0717C19.6552 13.9557 19.4623 13.8681 19.2019 13.8089L18.2786 13.6065C17.7696 13.4905 17.3932 13.3059 17.1493 13.0526C16.9078 12.7992 16.7871 12.4785 16.7871 12.0902C16.7871 11.7682 16.8771 11.4865 17.057 11.245C17.2369 11.0036 17.4855 10.8153 17.8027 10.6804C18.12 10.5431 18.4834 10.4744 18.8929 10.4744C19.4824 10.4744 19.9464 10.6023 20.285 10.858C20.6235 11.1113 20.8472 11.451 20.9561 11.8771Z" fill="#181818"/>
<path d="M144.903 8.72727H146.235L148.55 14.3807H148.635L150.951 8.72727H152.282V16H151.238V10.7372H151.171L149.026 15.9893H148.16L146.015 10.7337H145.947V16H144.903V8.72727ZM155.85 16.1101C155.339 16.1101 154.892 15.9929 154.511 15.7585C154.13 15.5241 153.834 15.1963 153.624 14.7749C153.413 14.3535 153.307 13.861 153.307 13.2976C153.307 12.7318 153.413 12.237 153.624 11.8132C153.834 11.3894 154.13 11.0604 154.511 10.826C154.892 10.5916 155.339 10.4744 155.85 10.4744C156.361 10.4744 156.808 10.5916 157.189 10.826C157.57 11.0604 157.866 11.3894 158.077 11.8132C158.287 12.237 158.393 12.7318 158.393 13.2976C158.393 13.861 158.287 14.3535 158.077 14.7749C157.866 15.1963 157.57 15.5241 157.189 15.7585C156.808 15.9929 156.361 16.1101 155.85 16.1101ZM155.854 15.2188C156.185 15.2188 156.46 15.1312 156.678 14.956C156.895 14.7808 157.056 14.5476 157.16 14.2564C157.267 13.9652 157.32 13.6444 157.32 13.294C157.32 12.946 157.267 12.6264 157.16 12.3352C157.056 12.0417 156.895 11.8061 156.678 11.6286C156.46 11.451 156.185 11.3622 155.854 11.3622C155.52 11.3622 155.243 11.451 155.023 11.6286C154.805 11.8061 154.643 12.0417 154.536 12.3352C154.432 12.6264 154.38 12.946 154.38 13.294C154.38 13.6444 154.432 13.9652 154.536 14.2564C154.643 14.5476 154.805 14.7808 155.023 14.956C155.243 15.1312 155.52 15.2188 155.854 15.2188ZM159.338 16V10.5455H160.364V11.4119H160.421C160.52 11.1184 160.696 10.8875 160.947 10.7195C161.2 10.549 161.486 10.4638 161.806 10.4638C161.872 10.4638 161.95 10.4661 162.04 10.4709C162.133 10.4756 162.205 10.4815 162.257 10.4886V11.5043C162.214 11.4924 162.139 11.4794 162.03 11.4652C161.921 11.4486 161.812 11.4403 161.703 11.4403C161.452 11.4403 161.228 11.4936 161.032 11.6001C160.838 11.7043 160.684 11.8499 160.57 12.0369C160.457 12.2216 160.4 12.4323 160.4 12.669V16H159.338ZM165.091 16.1101C164.554 16.1101 164.091 15.9953 163.703 15.7656C163.317 15.5336 163.019 15.2081 162.808 14.7891C162.6 14.3677 162.495 13.8741 162.495 13.3082C162.495 12.7495 162.6 12.2571 162.808 11.831C163.019 11.4048 163.312 11.0722 163.689 10.8331C164.067 10.594 164.51 10.4744 165.017 10.4744C165.325 10.4744 165.623 10.5253 165.912 10.6271C166.2 10.7289 166.46 10.8887 166.689 11.1065C166.919 11.3243 167.1 11.6072 167.233 11.9553C167.365 12.3009 167.432 12.7211 167.432 13.2159V13.5923H163.096V12.7969H166.391C166.391 12.5175 166.334 12.2701 166.221 12.0547C166.107 11.8369 165.947 11.6652 165.741 11.5398C165.538 11.4143 165.298 11.3516 165.024 11.3516C164.726 11.3516 164.465 11.425 164.243 11.5717C164.022 11.7161 163.852 11.9055 163.731 12.1399C163.613 12.3719 163.554 12.6241 163.554 12.8963V13.5178C163.554 13.8823 163.618 14.1925 163.745 14.4482C163.876 14.7038 164.057 14.8991 164.289 15.0341C164.521 15.1667 164.792 15.233 165.102 15.233C165.303 15.233 165.487 15.2045 165.652 15.1477C165.818 15.0885 165.961 15.0009 166.082 14.8849C166.203 14.7689 166.295 14.6257 166.359 14.4553L167.364 14.6364C167.284 14.9323 167.139 15.1915 166.931 15.4141C166.725 15.6342 166.466 15.8059 166.153 15.929C165.843 16.0497 165.489 16.1101 165.091 16.1101Z" fill="#181818"/>
</svg>
