<svg width="28" height="28" viewBox="0 0 28 28" fill="none" xmlns="http://www.w3.org/2000/svg" stroke="">
<path fill-rule="evenodd" clip-rule="evenodd" d="M8.92193 11.7591H3.83669C3.09052 11.7533 2.37246 12.0277 1.84048 12.5219C1.30849 13.016 1.00615 13.6895 1 14.3942V24.367C1.01381 25.8339 2.28357 27.0127 3.83669 27.0003H8.92193C9.66804 27.0062 10.3862 26.7319 10.9182 26.2377C11.4502 25.7436 11.7525 25.0701 11.7586 24.3653V14.3942C11.7525 13.6895 11.4502 13.016 10.9182 12.5219C10.3862 12.0277 9.66804 11.7533 8.92193 11.7591Z"  stroke-width="2" stroke-linecap="round" stroke-linejoin="round"/>
<path fill-rule="evenodd" clip-rule="evenodd" d="M8.92193 1.00108H3.83669C2.31481 0.958885 1.04589 2.15607 1 3.67738V5.49504C1.04589 7.01636 2.31481 8.21354 3.83669 8.17133H8.92193C10.4437 8.21354 11.7127 7.01636 11.7586 5.49504V3.67738C11.7127 2.15607 10.4437 0.958885 8.92193 1.00108Z"  stroke-width="2" stroke-linecap="round" stroke-linejoin="round"/>
<path fill-rule="evenodd" clip-rule="evenodd" d="M19.0779 16.2413H24.1613C24.9078 16.2475 25.6263 15.9734 26.1587 15.4792C26.6911 14.9849 26.9937 14.3112 26.9998 13.6063V3.63511C26.9937 2.93043 26.6914 2.25691 26.1594 1.76274C25.6274 1.26857 24.9093 0.994233 24.1631 1.00009H19.0779C18.3318 0.994233 17.6137 1.26857 17.0816 1.76274C16.5496 2.25691 16.2473 2.93043 16.2412 3.63511V13.6063C16.2473 14.3109 16.5496 14.9844 17.0816 15.4785C17.6137 15.9727 18.3318 16.247 19.0779 16.2413Z"  stroke-width="2" stroke-linecap="round" stroke-linejoin="round"/>
<path fill-rule="evenodd" clip-rule="evenodd" d="M19.0779 26.9989H24.1613C25.6839 27.0421 26.9539 25.8447 26.9998 24.3226V22.505C26.9539 20.9837 25.6849 19.7866 24.1631 19.8287H19.0779C17.5561 19.7866 16.2871 20.9837 16.2412 22.505V24.3208C16.286 25.8429 17.5554 27.041 19.0779 26.9989Z"  stroke-width="2" stroke-linecap="round" stroke-linejoin="round"/>
</svg>
