<svg width="32" height="32" viewBox="0 0 32 32" fill="none" xmlns="http://www.w3.org/2000/svg">
<path d="M9.33317 17.1668C9.9775 17.1668 10.4998 16.6445 10.4998 16.0002C10.4998 15.3558 9.9775 14.8335 9.33317 14.8335C8.68884 14.8335 8.1665 15.3558 8.1665 16.0002C8.1665 16.6445 8.68884 17.1668 9.33317 17.1668Z" fill="#181818" stroke="#181818" stroke-linecap="round" stroke-linejoin="round"/>
<path d="M16.0002 17.1668C16.6445 17.1668 17.1668 16.6445 17.1668 16.0002C17.1668 15.3558 16.6445 14.8335 16.0002 14.8335C15.3558 14.8335 14.8335 15.3558 14.8335 16.0002C14.8335 16.6445 15.3558 17.1668 16.0002 17.1668Z" fill="#181818" stroke="#181818" stroke-linecap="round" stroke-linejoin="round"/>
<path d="M22.6667 17.1668C23.311 17.1668 23.8333 16.6445 23.8333 16.0002C23.8333 15.3558 23.311 14.8335 22.6667 14.8335C22.0223 14.8335 21.5 15.3558 21.5 16.0002C21.5 16.6445 22.0223 17.1668 22.6667 17.1668Z" fill="#181818" stroke="#181818" stroke-linecap="round" stroke-linejoin="round"/>
</svg>
