<svg width="24" height="26" viewBox="0 0 24 26"  xmlns="http://www.w3.org/2000/svg">
<path d="M11.9117 7.40738C13.9572 7.40738 15.6154 5.74918 15.6154 3.70369C15.6154 1.6582 13.9572 0 11.9117 0C9.86621 0 8.20801 1.6582 8.20801 3.70369C8.20801 5.74918 9.86621 7.40738 11.9117 7.40738Z" />
<path d="M22.8365 19.9512C21.0504 15.7585 14.7201 9.28878 14.597 9.20891C13.9601 8.52147 13.029 8.18407 12.0885 8.17021V8.16736H11.9112V8.17021C10.9707 8.18447 10.0392 8.52188 9.4027 9.20891C9.27964 9.28878 2.94885 15.7585 1.16281 19.9512C0.72639 20.9764 1.1351 21.9418 1.81928 22.5111C1.64977 23.0734 1.64569 23.7013 1.83599 24.3073C2.16321 25.3513 3.00997 26 4.04378 26C6.02174 26 17.9661 26 19.9551 26C20.9889 26 21.8353 25.3509 22.1625 24.3073C22.3532 23.7013 22.3491 23.0734 22.1792 22.5111C22.8646 21.9418 23.2733 20.9764 22.8365 19.9512ZM6.02093 19.2907C6.78049 18.0494 7.64641 16.9146 8.58772 15.8225C8.58772 16.9488 8.62032 19.7666 8.67696 20.0225C8.48584 19.9732 6.71163 19.5262 6.02093 19.2907ZM15.3231 20.0225C15.3794 19.7666 15.412 16.9488 15.412 15.8225C16.3541 16.9146 17.22 18.0494 17.9792 19.2907C17.2889 19.5262 15.5147 19.9732 15.3231 20.0225Z" />
</svg>
