<svg width="26" height="25" viewBox="0 0 26 25" fill="#181818" xmlns="http://www.w3.org/2000/svg">
<path d="M21.6667 16.3043V3.26087C21.6667 1.45978 20.2118 0 18.4167 0H3.25C1.45492 0 0 1.45978 0 3.26087V8.69565H4.33333V21.7391C4.33333 23.5402 5.78825 25 7.58333 25H22.75C24.5451 25 26 23.5402 26 21.7391V16.3043H21.6667ZM4.33333 6.52174H2.16667V3.26087C2.16667 2.66196 2.65308 2.17391 3.25 2.17391C3.848 2.17391 4.33333 2.66087 4.33333 3.26087V6.52174ZM6.5 21.7391V3.26087C6.5 2.88043 6.435 2.51413 6.31475 2.17391H18.4167C19.0136 2.17391 19.5 2.66196 19.5 3.26087V16.3043H8.66667V21.7391C8.66667 22.3391 8.18133 22.8261 7.58333 22.8261C6.98642 22.8261 6.5 22.338 6.5 21.7391ZM23.8333 21.7391C23.8333 22.338 23.3469 22.8261 22.75 22.8261H10.6481C10.7683 22.4859 10.8333 22.1196 10.8333 21.7391V18.4783H23.8333V21.7391ZM17.3333 8.69565H8.66667V6.52174H17.3333V8.69565ZM17.3333 13.0435H8.66667V10.8696H17.3333V13.0435Z" />
</svg>
