<svg width="24" height="26" viewBox="0 0 24 26" fill="none" xmlns="http://www.w3.org/2000/svg">
<g filter="url(#filter0_d_89_3374)">
<path fill-rule="evenodd" clip-rule="evenodd" d="M15.0303 0C13.9425 0 13.0606 0.895428 13.0606 2C13.0606 2.12056 13.0711 2.23862 13.0913 2.3533L10.2242 4.39113C10.2096 4.40148 10.1958 4.41254 10.1828 4.42424C9.84844 4.15844 9.42729 4 8.9697 4C7.88186 4 7 4.89545 7 6C7 7.10455 7.88186 8 8.9697 8C9.42729 8 9.84844 7.84154 10.1828 7.57575C10.1958 7.58745 10.2096 7.59852 10.2242 7.60886L13.0913 9.64671C13.0711 9.76135 13.0606 9.87945 13.0606 10C13.0606 11.1046 13.9425 12 15.0303 12C16.1181 12 17 11.1046 17 10C17 8.89545 16.1181 8 15.0303 8C14.3922 8 13.825 8.30806 13.4651 8.78566L10.7503 6.85606C10.8716 6.59655 10.9394 6.30634 10.9394 6C10.9394 5.69366 10.8716 5.40345 10.7503 5.14394L13.4651 3.21434C13.825 3.69195 14.3922 4 15.0303 4C16.1181 4 17 3.10457 17 2C17 0.895428 16.1181 0 15.0303 0ZM13.9697 2C13.9697 1.40523 14.4445 0.923077 15.0303 0.923077C15.6161 0.923077 16.0909 1.40523 16.0909 2C16.0909 2.59477 15.6161 3.07692 15.0303 3.07692C14.4445 3.07692 13.9697 2.59477 13.9697 2ZM8.9697 4.92308C8.38394 4.92308 7.90909 5.40523 7.90909 6C7.90909 6.59477 8.38394 7.07692 8.9697 7.07692C9.55545 7.07692 10.0303 6.59477 10.0303 6C10.0303 5.40523 9.55545 4.92308 8.9697 4.92308ZM15.0303 8.92308C14.4445 8.92308 13.9697 9.40523 13.9697 10C13.9697 10.5948 14.4445 11.0769 15.0303 11.0769C15.6161 11.0769 16.0909 10.5948 16.0909 10C16.0909 9.40523 15.6161 8.92308 15.0303 8.92308Z" fill="#FBFBFB"/>
</g>
<defs>
<filter id="filter0_d_89_3374" x="0" y="0" width="24" height="26" filterUnits="userSpaceOnUse" color-interpolation-filters="sRGB">
<feFlood flood-opacity="0" result="BackgroundImageFix"/>
<feColorMatrix in="SourceAlpha" type="matrix" values="0 0 0 0 0 0 0 0 0 0 0 0 0 0 0 0 0 0 127 0" result="hardAlpha"/>
<feOffset dy="7"/>
<feGaussianBlur stdDeviation="3.5"/>
<feComposite in2="hardAlpha" operator="out"/>
<feColorMatrix type="matrix" values="0 0 0 0 0 0 0 0 0 0 0 0 0 0 0 0 0 0 0.28 0"/>
<feBlend mode="normal" in2="BackgroundImageFix" result="effect1_dropShadow_89_3374"/>
<feBlend mode="normal" in="SourceGraphic" in2="effect1_dropShadow_89_3374" result="shape"/>
</filter>
</defs>
</svg>
