<svg width="34" height="34" viewBox="0 0 34 34" fill="none" xmlns="http://www.w3.org/2000/svg">
<path d="M17.0002 31.1667C24.8242 31.1667 31.1668 24.8241 31.1668 17C31.1668 9.17601 24.8242 2.83337 17.0002 2.83337C9.17613 2.83337 2.8335 9.17601 2.8335 17C2.8335 24.8241 9.17613 31.1667 17.0002 31.1667Z" stroke="#E7E7E7" stroke-width="2"/>
<path d="M21.8361 15.4998C22.9435 16.1537 22.9435 17.8464 21.8361 18.5003L15.1491 22.4483C14.0728 23.0838 12.75 22.2566 12.75 20.948V13.052C12.75 11.7435 14.0728 10.9163 15.1491 11.5518L21.8361 15.4998Z" fill="#E7E7E7"/>
<path d="M21.8361 15.4998C22.9435 16.1537 22.9435 17.8464 21.8361 18.5003L15.1491 22.4483C14.0728 23.0838 12.75 22.2566 12.75 20.948V13.052C12.75 11.7435 14.0728 10.9163 15.1491 11.5518L21.8361 15.4998Z" fill="#E7E7E7"/>
</svg>
