<svg width="25" height="30" viewBox="0 0 25 30" fill="none" xmlns="http://www.w3.org/2000/svg">
<path d="M10.4167 4.1665C10.4167 7.61828 7.61844 10.4165 4.16666 10.4165C7.61844 10.4165 10.4167 13.2147 10.4167 16.6665C10.4167 13.2147 13.2149 10.4165 16.6667 10.4165C13.2149 10.4165 10.4167 7.61828 10.4167 4.1665Z" fill="#E25E3E" stroke="#E25E3E" stroke-linecap="round" stroke-linejoin="round"/>
<path d="M18.2292 15.625C18.2292 17.0632 17.0632 18.2292 15.625 18.2292C17.0632 18.2292 18.2292 19.3951 18.2292 20.8333C18.2292 19.3951 19.3951 18.2292 20.8333 18.2292C19.3951 18.2292 18.2292 17.0632 18.2292 15.625Z" fill="#E25E3E" stroke="#E25E3E" stroke-linecap="round" stroke-linejoin="round"/>
<path d="M10.6042 22C10.6042 23.4382 9.43823 24.6042 8 24.6042C9.43823 24.6042 10.6042 25.7701 10.6042 27.2083C10.6042 25.7701 11.7701 24.6042 13.2083 24.6042C11.7701 24.6042 10.6042 23.4382 10.6042 22Z" fill="#E25E3E" stroke="#E25E3E" stroke-linecap="round" stroke-linejoin="round"/>
</svg>
