<svg width="17" height="11" viewBox="0 0 17 11" fill="none" xmlns="http://www.w3.org/2000/svg">
<path d="M10.1667 8.08333H16M1 8.08333H2.66667M2.66667 8.08333C2.66667 9.23392 3.59941 10.1667 4.75 10.1667C5.90059 10.1667 6.83333 9.23392 6.83333 8.08333C6.83333 6.93275 5.90059 6 4.75 6C3.59941 6 2.66667 6.93275 2.66667 8.08333ZM15.1667 3.08333H16M1 3.08333H6.83333M12.25 5.16667C11.0994 5.16667 10.1667 4.23392 10.1667 3.08333C10.1667 1.93274 11.0994 1 12.25 1C13.4006 1 14.3333 1.93274 14.3333 3.08333C14.3333 4.23392 13.4006 5.16667 12.25 5.16667Z" stroke="#FBFBFB" stroke-width="1.3" stroke-linecap="round" stroke-linejoin="round"/>
</svg>
